<svg xmlns="http://www.w3.org/2000/svg" viewBox="0 0 1200 675" role="img"><rect width="1200" height="675" fill="#c9dcef"/><rect y="320" width="1200" height="355" fill="#547746"/><g fill="#284b2c"><circle cx="120" cy="260" r="120"/><circle cx="1080" cy="250" r="130"/><circle cx="250" cy="245" r="95"/><circle cx="930" cy="235" r="105"/></g><path d="M465 675 C470 565 500 465 545 330 L675 330 C720 465 750 565 755 675Z" fill="#806a4d"/><path d="M520 675 C525 565 545 470 575 335" fill="none" stroke="#5e4d38" stroke-width="18"/><path d="M700 675 C690 565 670 470 640 335" fill="none" stroke="#5e4d38" stroke-width="18"/><rect x="505" y="230" width="210" height="120" fill="#8b7a67"/><polygon points="480,235 610,155 740,235" fill="#4b4b4b"/><text x="55" y="625" font-family="Arial" font-size="34" font-weight="700" fill="#fff">BEFORE — RUTTED DIRT ACCESS</text></svg>