<svg xmlns="http://www.w3.org/2000/svg" viewBox="0 0 1200 675" role="img"><rect width="1200" height="675" fill="#c7dcef"/><rect y="365" width="1200" height="310" fill="#5f7f43"/><g fill="#244a2a"><circle cx="95" cy="205" r="135"/><circle cx="235" cy="185" r="145"/><circle cx="390" cy="215" r="125"/><circle cx="560" cy="175" r="150"/><circle cx="740" cy="210" r="135"/><circle cx="900" cy="180" r="150"/><circle cx="1080" cy="215" r="140"/></g><g fill="#5a3d2b"><rect x="80" y="250" width="28" height="240"/><rect x="225" y="240" width="30" height="250"/><rect x="380" y="260" width="28" height="230"/><rect x="550" y="235" width="30" height="255"/><rect x="730" y="255" width="28" height="235"/><rect x="890" y="235" width="30" height="255"/><rect x="1065" y="255" width="28" height="235"/></g><path d="M360 675 Q600 560 840 675" fill="#6d5a3f" opacity=".7"/><text x="55" y="625" font-family="Arial" font-size="34" font-weight="700" fill="#fff">BEFORE — WOODED HOUSE-SITE AREA</text></svg>