<svg xmlns="http://www.w3.org/2000/svg" viewBox="0 0 900 420" role="img" aria-labelledby="title desc"><title id="title">Northern Lakes Property Services</title><desc id="desc">Forest green pine trees reflected in water beside the Northern Lakes Property Services wordmark.</desc><rect width="900" height="420" fill="#f3ead7"/><g fill="#153b2e"><path d="M145 55l-36 64h24l-47 78h39l-55 90h150l-55-90h39l-47-78h24z"/><path d="M63 110l-25 45h17l-32 53h27l-38 62h103l-38-62h27l-32-53h17z"/><path d="M230 110l-25 45h17l-32 53h27l-38 62h103l-38-62h27l-32-53h17z"/><path d="M20 297c55-26 103 22 158 0s96 25 133 0v15c-46 23-88-22-137 0s-103-22-154 0zm25 36c42-18 82 17 125 0s82 17 119 0v13c-43 18-79-17-119 0s-84-17-125 0z"/></g><g font-family="Arial Black,Arial,sans-serif" fill="#153b2e"><text x="345" y="165" font-size="72" font-weight="900" letter-spacing="2">NORTHERN</text><text x="345" y="245" font-size="82" font-weight="900" letter-spacing="2">LAKES</text><text x="350" y="300" font-size="31" font-weight="700" letter-spacing="7" fill="#9a6332">PROPERTY SERVICES</text></g><path d="M345 325h470" stroke="#9a6332" stroke-width="7"/></svg>