<svg xmlns="http://www.w3.org/2000/svg" viewBox="0 0 520 620" role="img" aria-labelledby="t d"><title id="t">Northern Lakes Property Maintenance LLC diamond logo</title><desc id="d">Cream diamond with forest green trees, Northern Lakes lettering and reflected water.</desc><path fill="#f5efe1" stroke="#153b2e" stroke-width="22" d="M260 16 500 310 260 604 20 310Z"/><path fill="none" stroke="#9a6332" stroke-width="6" d="M260 48 468 310 260 572 52 310Z"/><g fill="#153b2e"><path d="m260 82-32 70h20l-43 58h31l-53 70h154l-53-70h31l-43-58h20z"/><path d="m150 145-20 45h13l-27 36h19l-34 44h98l-34-44h19l-27-36h13z"/><path d="m370 145-20 45h13l-27 36h19l-34 44h98l-34-44h19l-27-36h13z"/><path d="M94 280h332v8H94z"/></g><text x="260" y="360" text-anchor="middle" font-family="Arial Black,Impact,sans-serif" font-size="58" fill="#153b2e" letter-spacing="2">NORTHERN</text><text x="260" y="422" text-anchor="middle" font-family="Arial Black,Impact,sans-serif" font-size="64" fill="#153b2e" letter-spacing="2">LAKES</text><text x="260" y="462" text-anchor="middle" font-family="Arial Narrow,Arial,sans-serif" font-size="24" font-weight="700" fill="#9a6332" letter-spacing="5">PROPERTY</text><text x="260" y="492" text-anchor="middle" font-family="Arial Narrow,Arial,sans-serif" font-size="20" font-weight="700" fill="#9a6332" letter-spacing="3">MAINTENANCE LLC</text><g fill="#153b2e"><path d="M95 520h330v7H95z"/><path d="m260 542-130 12 104 8-80 9 63 6-40 8 83 9 83-9-40-8 63-6-80-9 104-8z"/></g></svg>