<?xml version="1.0" encoding="UTF-8"?><svg xmlns="http://www.w3.org/2000/svg" width="17in" height="11in" viewBox="0 0 1700 1100" role="img"><title>A-201 Exterior Elevations — Four Coordinated Views</title>
<defs>
<marker id="arr" markerWidth="8" markerHeight="8" refX="5" refY="4" orient="auto"><path d="M0 0L8 4L0 8z" fill="#111"/></marker>
<marker id="oa" markerWidth="9" markerHeight="9" refX="4.5" refY="4.5" orient="auto"><path d="M8 1L1 4.5L8 8" fill="none" stroke="#111"/></marker>
<pattern id="concrete" width="18" height="18" patternUnits="userSpaceOnUse"><circle cx="4" cy="5" r="1"/><circle cx="13" cy="12" r="1"/><path d="M2 15l4-2M11 3l4-2" stroke="#666" stroke-width=".8"/></pattern>
<pattern id="wood" width="12" height="12" patternUnits="userSpaceOnUse"><path d="M0 12L12 0M-3 3L3-3M9 15L15 9" stroke="#777" stroke-width=".7"/></pattern>
<pattern id="insul" width="28" height="14" patternUnits="userSpaceOnUse"><path d="M0 7Q7-2 14 7T28 7" fill="none" stroke="#777" stroke-width="1"/></pattern>
<pattern id="earth" width="18" height="12" patternUnits="userSpaceOnUse"><path d="M0 10Q5 2 10 10T20 10" fill="none" stroke="#777" stroke-width=".8"/></pattern>
<pattern id="roof" width="14" height="10" patternUnits="userSpaceOnUse"><path d="M0 9L7 2M7 9L14 2" stroke="#777" stroke-width=".7"/></pattern>
</defs>

<style>
.border{fill:#fff;stroke:#111;stroke-width:3}.inner{fill:none;stroke:#111;stroke-width:1}
.cut{fill:#fff;stroke:#050505;stroke-width:5}.heavy{fill:none;stroke:#050505;stroke-width:3.5}
.outline{fill:none;stroke:#111;stroke-width:2.2}.object{fill:none;stroke:#111;stroke-width:1.4}
.thin{fill:none;stroke:#333;stroke-width:1}.hair{fill:none;stroke:#777;stroke-width:.65}
.under{fill:none;stroke:#777;stroke-width:1.1}.underheavy{fill:none;stroke:#555;stroke-width:2.2}
.hidden{fill:none;stroke:#555;stroke-width:1;stroke-dasharray:7 5}.center{fill:none;stroke:#777;stroke-width:.8;stroke-dasharray:13 4 2 4}
.dimline{fill:none;stroke:#111;stroke-width:.8;marker-start:url(#oa);marker-end:url(#oa)}.ext{fill:none;stroke:#666;stroke-width:.75}
.leader{fill:none;stroke:#111;stroke-width:1;marker-end:url(#arr)}.grade{fill:none;stroke:#286a3e;stroke-width:2}
.property{fill:none;stroke:#111;stroke-width:2;stroke-dasharray:14 5}.setback{fill:none;stroke:#555;stroke-width:1;stroke-dasharray:6 4}
.clearing{fill:none;stroke:#865c20;stroke-width:2;stroke-dasharray:10 5}.silt{fill:none;stroke:#7c2222;stroke-width:2;stroke-dasharray:5 4}
.duct{fill:none;stroke:#69468a;stroke-width:3}.return{fill:none;stroke:#69468a;stroke-width:2.5;stroke-dasharray:7 4}
.hot{fill:none;stroke:#ba2b2b;stroke-width:2}.cold{fill:none;stroke:#16729e;stroke-width:2}.waste{fill:none;stroke:#444;stroke-width:3}.vent{fill:none;stroke:#444;stroke-width:1.2;stroke-dasharray:5 4}
.power{fill:none;stroke:#333;stroke-width:1.2}.circuit{fill:none;stroke:#777;stroke-width:1;stroke-dasharray:5 4}
.fillgray{fill:#eee;stroke:#111}.filllight{fill:#f7f7f7;stroke:#111}.filldark{fill:#ddd;stroke:#111}
.concrete{fill:url(#concrete);stroke:#111}.wood{fill:url(#wood);stroke:#111}.earth{fill:url(#earth);stroke:#111}.roof{fill:url(#roof);stroke:#111}.insul{fill:url(#insul);stroke:#111}
.bubble{fill:#fff;stroke:#111;stroke-width:1.4}.fixture{fill:#fff;stroke:#111;stroke-width:1.2}.casework{fill:#fff;stroke:#111;stroke-width:1.2}.glass{fill:#fff;stroke:#111;stroke-width:1.2}
.title{font:700 20px Arial}.sub{font:11px Arial;fill:#333}.txt{font:11px Arial}.small{font:10px Arial}.tiny{font:8.5px Arial}.dim{font:9px Arial}.room{font:700 13px Arial;letter-spacing:.04em}
.tb{font:9px Arial}.tbhead{font:700 12px Arial}.sheetno{font:700 34px Arial}.warn{font:700 10px Arial;fill:#8c1d1d}.bubbletxt{font:700 12px Arial}.material{font:700 8px Arial;letter-spacing:.04em}
</style>
<rect x="25" y="25" width="1650" height="1050" rx="0" class="border"/><rect x="45" y="45" width="1610" height="1010" rx="0" class="inner"/><text x="70" y="75" class="title" text-anchor="start">A-201 — Exterior Elevations — Four Coordinated Views</text><text x="70" y="97" class="sub" text-anchor="start">1/8″ = 1′-0″ · New Construction / Exterior Coordination · REV F · REPRESENTATIVE / VERIFY BEFORE CONSTRUCTION</text><rect x="60" y="120" width="760" height="320" rx="0" class="inner"/><text x="72" y="144" class="tbhead" text-anchor="start">SOUTH / FRONT ELEVATION</text><line x1="115" y1="398" x2="765" y2="398" class="grade"/><rect x="115" y="278" width="650" height="120" rx="0" class="outline"/><rect x="115" y="380" width="650" height="18" rx="0" class="concrete"/><polyline points="95,283 440.0,183 785,283" class="roof"/><line x1="95" y1="283" x2="785" y2="283" class="heavy"/><line x1="115" y1="290" x2="765" y2="290" class="hair"/><line x1="115" y1="303" x2="765" y2="303" class="hair"/><line x1="115" y1="316" x2="765" y2="316" class="hair"/><line x1="115" y1="329" x2="765" y2="329" class="hair"/><line x1="115" y1="342" x2="765" y2="342" class="hair"/><line x1="115" y1="355" x2="765" y2="355" class="hair"/><line x1="115" y1="368" x2="765" y2="368" class="hair"/><line x1="115" y1="381" x2="765" y2="381" class="hair"/><line x1="115" y1="394" x2="765" y2="394" class="hair"/><rect x="168.0" y="313" width="50" height="62" rx="0" class="glass"/><line x1="193.0" y1="313" x2="193.0" y2="375" class="hair"/><line x1="168.0" y1="344" x2="218.0" y2="344" class="hair"/><rect x="311.0" y="313" width="50" height="62" rx="0" class="glass"/><line x1="336.0" y1="313" x2="336.0" y2="375" class="hair"/><line x1="311.0" y1="344" x2="361.0" y2="344" class="hair"/><rect x="519.0" y="313" width="50" height="62" rx="0" class="glass"/><line x1="544.0" y1="313" x2="544.0" y2="375" class="hair"/><line x1="519.0" y1="344" x2="569.0" y2="344" class="hair"/><rect x="649.0" y="313" width="50" height="62" rx="0" class="glass"/><line x1="674.0" y1="313" x2="674.0" y2="375" class="hair"/><line x1="649.0" y1="344" x2="699.0" y2="344" class="hair"/><rect x="258.0" y="360" width="364.00000000000006" height="18" rx="0" class="wood"/><polyline points="246.0,360 440.0,302 634.0,360" class="roof"/><line x1="258.0" y1="360" x2="258.0" y2="398" class="outline"/><line x1="622.0" y1="360" x2="622.0" y2="398" class="outline"/><rect x="420.5" y="303" width="55" height="95" rx="0" class="outline"/><text x="440.0" y="353" class="tiny" text-anchor="middle">COVERED FRONT PORCH</text><rect x="401.0" y="218" width="90" height="60" rx="0" class="outline"/><polyline points="393.0,226 446.0,183 499.0,226" class="roof"/><rect x="431.0" y="234" width="30" height="36" rx="0" class="glass"/><rect x="648.0" y="203" width="22" height="70" rx="0" class="outline"/><text x="659.0" y="197" class="tiny" text-anchor="middle">CHIMNEY</text><line x1="115" y1="398" x2="115" y2="423" class="ext"/><line x1="765" y1="398" x2="765" y2="423" class="ext"/><line x1="115" y1="423" x2="765" y2="423" class="dimline"/><text x="440.0" y="416" class="dim" text-anchor="middle">48′-0″</text><line x1="115" y1="278" x2="88" y2="278" class="ext"/><line x1="115" y1="398" x2="88" y2="398" class="ext"/><line x1="88" y1="278" x2="88" y2="398" class="dimline"/><text x="81" y="338.0" class="dim" text-anchor="middle" transform="rotate(-90 81 338.0)">18′-0″ EAVE</text><line x1="115" y1="183" x2="63" y2="183" class="ext"/><line x1="115" y1="398" x2="63" y2="398" class="ext"/><line x1="63" y1="183" x2="63" y2="398" class="dimline"/><text x="56" y="290.5" class="dim" text-anchor="middle" transform="rotate(-90 56 290.5)">24′-6″ RIDGE</text><text x="440.0" y="201" class="tiny" text-anchor="middle">8:12</text><text x="120" y="418" class="tiny" text-anchor="start">FINISHED GRADE 100′-0″</text><rect x="860" y="120" width="760" height="320" rx="0" class="inner"/><text x="872" y="144" class="tbhead" text-anchor="start">NORTH / REAR ELEVATION</text><line x1="915" y1="398" x2="1565" y2="398" class="grade"/><rect x="915" y="278" width="650" height="120" rx="0" class="outline"/><rect x="915" y="380" width="650" height="18" rx="0" class="concrete"/><polyline points="895,283 1240.0,183 1585,283" class="roof"/><line x1="895" y1="283" x2="1585" y2="283" class="heavy"/><line x1="915" y1="290" x2="1565" y2="290" class="hair"/><line x1="915" y1="303" x2="1565" y2="303" class="hair"/><line x1="915" y1="316" x2="1565" y2="316" class="hair"/><line x1="915" y1="329" x2="1565" y2="329" class="hair"/><line x1="915" y1="342" x2="1565" y2="342" class="hair"/><line x1="915" y1="355" x2="1565" y2="355" class="hair"/><line x1="915" y1="368" x2="1565" y2="368" class="hair"/><line x1="915" y1="381" x2="1565" y2="381" class="hair"/><line x1="915" y1="394" x2="1565" y2="394" class="hair"/><rect x="968.0" y="313" width="50" height="62" rx="0" class="glass"/><line x1="993.0" y1="313" x2="993.0" y2="375" class="hair"/><line x1="968.0" y1="344" x2="1018.0" y2="344" class="hair"/><rect x="1111.0" y="313" width="50" height="62" rx="0" class="glass"/><line x1="1136.0" y1="313" x2="1136.0" y2="375" class="hair"/><line x1="1111.0" y1="344" x2="1161.0" y2="344" class="hair"/><rect x="1319.0" y="313" width="50" height="62" rx="0" class="glass"/><line x1="1344.0" y1="313" x2="1344.0" y2="375" class="hair"/><line x1="1319.0" y1="344" x2="1369.0" y2="344" class="hair"/><rect x="1449.0" y="313" width="50" height="62" rx="0" class="glass"/><line x1="1474.0" y1="313" x2="1474.0" y2="375" class="hair"/><line x1="1449.0" y1="344" x2="1499.0" y2="344" class="hair"/><rect x="1110.0" y="380" width="260.0" height="18" rx="0" class="wood"/><line x1="1122.0" y1="380" x2="1122.0" y2="398" class="outline"/><line x1="1358.0" y1="380" x2="1358.0" y2="398" class="outline"/><text x="1240.0" y="373" class="tiny" text-anchor="middle">REAR DECK ATTACHED AT LEDGER</text><rect x="1214.0" y="300" width="60" height="98" rx="0" class="outline"/><rect x="1448.0" y="203" width="22" height="70" rx="0" class="outline"/><text x="1459.0" y="197" class="tiny" text-anchor="middle">CHIMNEY</text><line x1="915" y1="398" x2="915" y2="423" class="ext"/><line x1="1565" y1="398" x2="1565" y2="423" class="ext"/><line x1="915" y1="423" x2="1565" y2="423" class="dimline"/><text x="1240.0" y="416" class="dim" text-anchor="middle">48′-0″</text><line x1="915" y1="278" x2="888" y2="278" class="ext"/><line x1="915" y1="398" x2="888" y2="398" class="ext"/><line x1="888" y1="278" x2="888" y2="398" class="dimline"/><text x="881" y="338.0" class="dim" text-anchor="middle" transform="rotate(-90 881 338.0)">18′-0″ EAVE</text><line x1="915" y1="183" x2="863" y2="183" class="ext"/><line x1="915" y1="398" x2="863" y2="398" class="ext"/><line x1="863" y1="183" x2="863" y2="398" class="dimline"/><text x="856" y="290.5" class="dim" text-anchor="middle" transform="rotate(-90 856 290.5)">24′-6″ RIDGE</text><text x="1240.0" y="201" class="tiny" text-anchor="middle">8:12</text><text x="920" y="418" class="tiny" text-anchor="start">FINISHED GRADE 100′-0″</text><rect x="60" y="480" width="760" height="320" rx="0" class="inner"/><text x="72" y="504" class="tbhead" text-anchor="start">EAST / RIGHT ELEVATION</text><line x1="115" y1="758" x2="765" y2="758" class="grade"/><rect x="115" y="638" width="650" height="120" rx="0" class="outline"/><rect x="115" y="740" width="650" height="18" rx="0" class="concrete"/><polyline points="95,643 440.0,543 785,643" class="roof"/><line x1="95" y1="643" x2="785" y2="643" class="heavy"/><line x1="115" y1="650" x2="765" y2="650" class="hair"/><line x1="115" y1="663" x2="765" y2="663" class="hair"/><line x1="115" y1="676" x2="765" y2="676" class="hair"/><line x1="115" y1="689" x2="765" y2="689" class="hair"/><line x1="115" y1="702" x2="765" y2="702" class="hair"/><line x1="115" y1="715" x2="765" y2="715" class="hair"/><line x1="115" y1="728" x2="765" y2="728" class="hair"/><line x1="115" y1="741" x2="765" y2="741" class="hair"/><line x1="115" y1="754" x2="765" y2="754" class="hair"/><rect x="272.0" y="673" width="50" height="62" rx="0" class="glass"/><line x1="297.0" y1="673" x2="297.0" y2="735" class="hair"/><rect x="558.0" y="673" width="50" height="62" rx="0" class="glass"/><line x1="583.0" y1="673" x2="583.0" y2="735" class="hair"/><rect x="661.0" y="663" width="45" height="95" rx="0" class="outline"/><text x="674.0" y="720" class="tiny" text-anchor="middle" transform="rotate(-90 674.0 720)">SERVICE</text><line x1="115" y1="758" x2="115" y2="783" class="ext"/><line x1="765" y1="758" x2="765" y2="783" class="ext"/><line x1="115" y1="783" x2="765" y2="783" class="dimline"/><text x="440.0" y="776" class="dim" text-anchor="middle">32′-0″</text><line x1="115" y1="638" x2="88" y2="638" class="ext"/><line x1="115" y1="758" x2="88" y2="758" class="ext"/><line x1="88" y1="638" x2="88" y2="758" class="dimline"/><text x="81" y="698.0" class="dim" text-anchor="middle" transform="rotate(-90 81 698.0)">18′-0″ EAVE</text><line x1="115" y1="543" x2="63" y2="543" class="ext"/><line x1="115" y1="758" x2="63" y2="758" class="ext"/><line x1="63" y1="543" x2="63" y2="758" class="dimline"/><text x="56" y="650.5" class="dim" text-anchor="middle" transform="rotate(-90 56 650.5)">24′-6″ RIDGE</text><text x="440.0" y="561" class="tiny" text-anchor="middle">8:12</text><text x="120" y="778" class="tiny" text-anchor="start">FINISHED GRADE 100′-0″</text><rect x="860" y="480" width="760" height="320" rx="0" class="inner"/><text x="872" y="504" class="tbhead" text-anchor="start">WEST / LEFT ELEVATION</text><line x1="915" y1="758" x2="1565" y2="758" class="grade"/><rect x="915" y="638" width="650" height="120" rx="0" class="outline"/><rect x="915" y="740" width="650" height="18" rx="0" class="concrete"/><polyline points="895,643 1240.0,543 1585,643" class="roof"/><line x1="895" y1="643" x2="1585" y2="643" class="heavy"/><line x1="915" y1="650" x2="1565" y2="650" class="hair"/><line x1="915" y1="663" x2="1565" y2="663" class="hair"/><line x1="915" y1="676" x2="1565" y2="676" class="hair"/><line x1="915" y1="689" x2="1565" y2="689" class="hair"/><line x1="915" y1="702" x2="1565" y2="702" class="hair"/><line x1="915" y1="715" x2="1565" y2="715" class="hair"/><line x1="915" y1="728" x2="1565" y2="728" class="hair"/><line x1="915" y1="741" x2="1565" y2="741" class="hair"/><line x1="915" y1="754" x2="1565" y2="754" class="hair"/><rect x="1072.0" y="673" width="50" height="62" rx="0" class="glass"/><line x1="1097.0" y1="673" x2="1097.0" y2="735" class="hair"/><rect x="1358.0" y="673" width="50" height="62" rx="0" class="glass"/><line x1="1383.0" y1="673" x2="1383.0" y2="735" class="hair"/><rect x="1461.0" y="663" width="45" height="95" rx="0" class="outline"/><text x="1474.0" y="720" class="tiny" text-anchor="middle" transform="rotate(-90 1474.0 720)">SERVICE</text><line x1="915" y1="758" x2="915" y2="783" class="ext"/><line x1="1565" y1="758" x2="1565" y2="783" class="ext"/><line x1="915" y1="783" x2="1565" y2="783" class="dimline"/><text x="1240.0" y="776" class="dim" text-anchor="middle">32′-0″</text><line x1="915" y1="638" x2="888" y2="638" class="ext"/><line x1="915" y1="758" x2="888" y2="758" class="ext"/><line x1="888" y1="638" x2="888" y2="758" class="dimline"/><text x="881" y="698.0" class="dim" text-anchor="middle" transform="rotate(-90 881 698.0)">18′-0″ EAVE</text><line x1="915" y1="543" x2="863" y2="543" class="ext"/><line x1="915" y1="758" x2="863" y2="758" class="ext"/><line x1="863" y1="543" x2="863" y2="758" class="dimline"/><text x="856" y="650.5" class="dim" text-anchor="middle" transform="rotate(-90 856 650.5)">24′-6″ RIDGE</text><text x="1240.0" y="561" class="tiny" text-anchor="middle">8:12</text><text x="920" y="778" class="tiny" text-anchor="start">FINISHED GRADE 100′-0″</text><text x="70" y="875" class="tiny" text-anchor="start">1. All windows, doors, porch posts, deck posts, chimney, roof edges, and foundations are connected to wall, roof, slab, or grade geometry.</text><text x="70" y="896" class="tiny" text-anchor="start">2. Final exterior materials, opening schedules, structural connections, flashing, and grade elevations require approved design.</text><line x1="45" y1="845" x2="1655" y2="845" class="outline"/><rect x="1160" y="845" width="495" height="210" rx="0" class="inner"/><line x1="1160" y1="915" x2="1655" y2="915" class="inner"/><line x1="1430" y1="845" x2="1430" y2="1055" class="inner"/><line x1="1160" y1="985" x2="1655" y2="985" class="inner"/><text x="1175" y="870" class="tbhead" text-anchor="start">HIGHWAY 38 SOLUTIONS</text><text x="1175" y="889" class="tb" text-anchor="start">Universal Quote Builder Demonstration</text><text x="1175" y="906" class="tb" text-anchor="start">Ground-Up New-Home Construction</text><text x="1445" y="870" class="tb" text-anchor="start">SHEET</text><text x="1540" y="895" class="sheetno" text-anchor="middle">A-201</text><text x="1175" y="940" class="tbhead" text-anchor="start">Exterior Elevations</text><text x="1175" y="958" class="tb" text-anchor="start">Scale: 1/8″ = 1′-0″</text><text x="1175" y="976" class="tb" text-anchor="start">New Construction / Exterior Coordination</text><text x="1445" y="940" class="tb" text-anchor="start">REVISION</text><text x="1540" y="965" class="sheetno" text-anchor="middle">F</text><text x="1175" y="1010" class="tb" text-anchor="start">Prepared by H38 Quote Builder</text><text x="1175" y="1028" class="tb" text-anchor="start">Issue: 2026-07-25</text><text x="1445" y="1010" class="warn" text-anchor="start">NOT FOR CONSTRUCTION</text><text x="1445" y="1028" class="tb" text-anchor="start">Final design / permits required</text></svg>