<svg xmlns="http://www.w3.org/2000/svg" width="1400" height="900" viewBox="0 0 1400 900"><defs><filter id="s"><feDropShadow dx="0" dy="16" stdDeviation="16" flood-color="#0f172a" flood-opacity=".18"/></filter><linearGradient id="g" x1="0" y1="0" x2="1" y2="1"><stop stop-color="#fffaf3"/><stop offset="1" stop-color="#eef2ff"/></linearGradient><linearGradient id="p" x1="0" y1="0" x2="1" y2="1"><stop stop-color="#1f2937"/><stop offset="1" stop-color="#0f172a"/></linearGradient></defs><rect width="1400" height="900" rx="34" fill="url(#g)"/><rect x="40" y="32" width="1320" height="84" rx="24" fill="#111827"/><text x="76" y="82" font-family="Arial" font-size="32" font-weight="900" fill="#fff">Problem Snapshot — finished draft example</text><text x="1032" y="82" font-family="Arial" font-size="16" font-weight="800" fill="#fed7aa">Sample output — not customer work</text><g filter="url(#s)"><rect x="58" y="150" width="650" height="600" rx="28" fill="#fff"/><text x="92" y="195" font-family="Arial" font-size="24" font-weight="900" fill="#111827">Sample input photo</text><rect x="92" y="220" width="580" height="350" rx="22" fill="url(#p)"/><rect x="130" y="430" width="500" height="16" rx="8" fill="#ef4444"/><rect x="130" y="374" width="100" height="72" rx="8" fill="#b45309"/><rect x="258" y="330" width="128" height="116" rx="8" fill="#92400e"/><rect x="414" y="370" width="96" height="76" rx="8" fill="#a16207"/><rect x="548" y="300" width="86" height="146" rx="10" fill="#475569"/><rect x="130" y="254" width="116" height="72" rx="10" fill="#64748b"/><rect x="292" y="260" width="140" height="60" rx="10" fill="#334155"/><circle cx="180" cy="288" r="28" fill="#dc2626"/><text x="170" y="299" font-family="Arial" font-size="28" font-weight="900" fill="#fff">1</text><circle cx="588" cy="336" r="28" fill="#dc2626"/><text x="578" y="347" font-family="Arial" font-size="28" font-weight="900" fill="#fff">2</text><circle cx="330" cy="400" r="28" fill="#dc2626"/><text x="320" y="411" font-family="Arial" font-size="28" font-weight="900" fill="#fff">3</text><rect x="92" y="604" width="580" height="92" rx="18" fill="#fff7ed" stroke="#fed7aa"/><text x="118" y="640" font-family="Arial" font-size="19" font-weight="900" fill="#7c2d12">H38 interpretation</text><text x="118" y="672" font-family="Arial" font-size="17" fill="#7c2d12">clear lane first · measure wall/door/outlets · sort tools, parts, projects</text></g><g filter="url(#s)"><rect x="758" y="150" width="584" height="600" rx="28" fill="#fff"/><rect x="794" y="186" width="512" height="58" rx="16" fill="#dbeafe"/><text x="822" y="223" font-family="Arial" font-size="24" font-weight="900" fill="#1e3a8a">Finished one-page report</text><rect x="794" y="286" width="154" height="120" rx="18" fill="#fee2e2" stroke="#fecaca"/><text x="820" y="333" font-family="Arial" font-size="46" font-weight="900" fill="#991b1b">3</text><text x="864" y="333" font-family="Arial" font-size="18" font-weight="900" fill="#991b1b">top issues</text><text x="820" y="370" font-family="Arial" font-size="16" fill="#991b1b">needs review</text><rect x="980" y="286" width="326" height="120" rx="18" fill="#f0fdf4" stroke="#86efac"/><text x="1010" y="330" font-family="Arial" font-size="21" font-weight="900" fill="#14532d">First action</text><text x="1010" y="366" font-family="Arial" font-size="17" fill="#14532d">Tape and clear one work lane.</text><rect x="794" y="446" width="512" height="160" rx="18" fill="#f8fafc" stroke="#cbd5e1"/><text x="824" y="484" font-family="Arial" font-size="20" font-weight="900" fill="#111827">Customer receives</text><text x="824" y="522" font-family="Arial" font-size="17" fill="#111827">1. Problem marker list</text><text x="824" y="554" font-family="Arial" font-size="17" fill="#111827">2. Missing measurement checklist</text><text x="824" y="586" font-family="Arial" font-size="17" fill="#111827">3. First-step cleanup order</text><rect x="794" y="638" width="512" height="56" rx="16" fill="#f0fdf4" stroke="#86efac"/><text x="824" y="674" font-family="Arial" font-size="18" font-weight="900" fill="#14532d">Rick Review Required / Owner Approval Required</text></g><text x="60" y="820" font-family="Arial" font-size="18" font-weight="900" fill="#7c2d12">Hypothetical example · Staged demo using sample information</text></svg>