<svg xmlns="http://www.w3.org/2000/svg" width="1100" height="680" viewBox="0 0 1100 680" role="img" aria-labelledby="t d"><title id="t">Workflow Opportunity Snapshot finished output</title><desc id="d">A bottleneck report and automation workflow diagram.</desc><defs><marker id="arr" markerWidth="10" markerHeight="10" refX="8" refY="5" orient="auto"><path d="M0 0L10 5L0 10Z" fill="#2563eb"/></marker><filter id="s"><feDropShadow dx="0" dy="14" stdDeviation="14" flood-color="#111827" flood-opacity=".16"/></filter></defs><rect width="1100" height="680" rx="28" fill="#fffaf3"/><rect x="34" y="26" width="1032" height="76" rx="18" fill="#0f172a"/><text x="64" y="72" font-family="Arial" font-size="28" font-weight="900" fill="#fff">Workflow Opportunity Snapshot — Bottlenecks + Draft System</text><text x="820" y="72" font-family="Arial" font-size="14" font-weight="800" fill="#fed7aa">Sample output — not customer work</text><g filter="url(#s)"><rect x="58" y="132" width="984" height="190" rx="24" fill="#fff"/><text x="90" y="178" font-family="Arial" font-size="23" font-weight="900" fill="#991b1b">Bottleneck report</text><rect x="90" y="210" width="270" height="70" rx="14" fill="#fee2e2" stroke="#ef4444"/><text x="112" y="252" font-family="Arial" font-size="17" font-weight="900" fill="#991b1b">Repeated intake sorting</text><rect x="414" y="210" width="270" height="70" rx="14" fill="#fee2e2" stroke="#ef4444"/><text x="436" y="252" font-family="Arial" font-size="17" font-weight="900" fill="#991b1b">Manual reply writing</text><rect x="738" y="210" width="270" height="70" rx="14" fill="#fee2e2" stroke="#ef4444"/><text x="760" y="252" font-family="Arial" font-size="17" font-weight="900" fill="#991b1b">Unclear approval gate</text></g><g filter="url(#s)"><rect x="58" y="360" width="984" height="210" rx="24" fill="#fff"/><text x="90" y="406" font-family="Arial" font-size="23" font-weight="900" fill="#14532d">Recommended draft workflow</text><g font-family="Arial" font-weight="900" font-size="15"><rect x="90" y="445" width="142" height="70" rx="14" fill="#dbeafe" stroke="#2563eb"/><text x="120" y="487" fill="#1e3a8a">Form Input</text><line x1="232" y1="480" x2="292" y2="480" stroke="#2563eb" stroke-width="4" marker-end="url(#arr)"/><rect x="294" y="445" width="142" height="70" rx="14" fill="#dcfce7" stroke="#16a34a"/><text x="322" y="487" fill="#14532d">Tracker Row</text><line x1="436" y1="480" x2="496" y2="480" stroke="#2563eb" stroke-width="4" marker-end="url(#arr)"/><rect x="498" y="445" width="142" height="70" rx="14" fill="#ffedd5" stroke="#ea580c"/><text x="518" y="487" fill="#7c2d12">Draft Output</text><line x1="640" y1="480" x2="700" y2="480" stroke="#2563eb" stroke-width="4" marker-end="url(#arr)"/><rect x="702" y="445" width="142" height="70" rx="14" fill="#ede9fe" stroke="#7c3aed"/><text x="732" y="487" fill="#4c1d95">Gmail Draft</text><line x1="844" y1="480" x2="904" y2="480" stroke="#2563eb" stroke-width="4" marker-end="url(#arr)"/><rect x="906" y="445" width="106" height="70" rx="14" fill="#f0fdf4" stroke="#16a34a"/><text x="928" y="474" fill="#14532d">Rick</text><text x="922" y="496" fill="#14532d">Review</text></g></g><rect x="58" y="600" width="984" height="50" rx="16" fill="#f0fdf4" stroke="#86efac"/><text x="86" y="632" font-family="Arial" font-size="18" font-weight="900" fill="#14532d">No customer-facing delivery without Rick/user approval</text></svg>