<svg xmlns="http://www.w3.org/2000/svg" width="1400" height="900" viewBox="0 0 1400 900"><defs><pattern id="grid" width="32" height="32" patternUnits="userSpaceOnUse"><path d="M32 0H0V32" fill="none" stroke="#e5e7eb"/></pattern><filter id="s"><feDropShadow dx="0" dy="16" stdDeviation="16" flood-color="#0f172a" flood-opacity=".18"/></filter></defs><rect width="1400" height="900" rx="34" fill="#f8fafc"/><rect x="40" y="32" width="1320" height="84" rx="24" fill="#0f172a"/><text x="76" y="82" font-family="Arial" font-size="32" font-weight="900" fill="#fff">Basic Layout Snapshot — finished CAD-style layout</text><text x="1070" y="82" font-family="Arial" font-size="16" font-weight="800" fill="#fed7aa">Hypothetical example</text><g filter="url(#s)"><rect x="58" y="150" width="880" height="600" rx="28" fill="#fff"/><text x="92" y="196" font-family="Arial" font-size="24" font-weight="900" fill="#111827">Top-down layout preview</text><rect x="116" y="230" width="760" height="420" fill="url(#grid)" stroke="#111827" stroke-width="4"/><rect x="164" y="284" width="296" height="178" rx="10" fill="#dbeafe" stroke="#0284c7" stroke-width="5"/><text x="240" y="382" font-family="Arial" font-size="28" font-weight="900" fill="#075985">Vehicle lane</text><rect x="508" y="284" width="154" height="104" rx="10" fill="#dcfce7" stroke="#16a34a" stroke-width="5"/><text x="540" y="343" font-family="Arial" font-size="20" font-weight="900" fill="#14532d">Tool wall</text><rect x="508" y="420" width="154" height="112" rx="10" fill="#ffedd5" stroke="#ea580c" stroke-width="5"/><text x="540" y="483" font-family="Arial" font-size="20" font-weight="900" fill="#7c2d12">Sort table</text><rect x="704" y="284" width="88" height="248" rx="10" fill="#ede9fe" stroke="#7c3aed" stroke-width="5"/><text x="741" y="512" font-family="Arial" font-size="20" font-weight="900" fill="#4c1d95" transform="rotate(-90 741 512)">Storage options</text><line x1="116" y1="686" x2="876" y2="686" stroke="#111827" stroke-width="5"/><text x="410" y="724" font-family="Arial" font-size="22" font-weight="900" fill="#111827">28'-0&quot; long wall</text><line x1="86" y1="230" x2="86" y2="650" stroke="#111827" stroke-width="5"/><text x="38" y="468" font-family="Arial" font-size="20" font-weight="900" fill="#111827" transform="rotate(-90 38 468)">22'-0&quot;</text><circle cx="830" cy="310" r="10" fill="#ef4444"/><text x="805" y="274" font-family="Arial" font-size="15" font-weight="900" fill="#ef4444">confirm outlet</text></g><g filter="url(#s)"><rect x="980" y="150" width="360" height="600" rx="28" fill="#fff"/><rect x="1012" y="188" width="296" height="54" rx="14" fill="#dbeafe"/><text x="1038" y="222" font-family="Arial" font-size="22" font-weight="900" fill="#1e3a8a">Storage choices</text><rect x="1012" y="286" width="296" height="88" rx="18" fill="#ede9fe" stroke="#7c3aed"/><text x="1040" y="322" font-family="Arial" font-size="18" font-weight="900" fill="#4c1d95">Option A</text><text x="1040" y="352" font-family="Arial" font-size="16" fill="#4c1d95">Tall wall shelves</text><rect x="1012" y="402" width="296" height="88" rx="18" fill="#dcfce7" stroke="#16a34a"/><text x="1040" y="438" font-family="Arial" font-size="18" font-weight="900" fill="#14532d">Option B</text><text x="1040" y="468" font-family="Arial" font-size="16" fill="#14532d">Tool wall + bins</text><rect x="1012" y="518" width="296" height="88" rx="18" fill="#ffedd5" stroke="#ea580c"/><text x="1040" y="554" font-family="Arial" font-size="18" font-weight="900" fill="#7c2d12">Option C</text><text x="1040" y="584" font-family="Arial" font-size="16" fill="#7c2d12">Sort table zone</text><rect x="1012" y="640" width="296" height="56" rx="16" fill="#f0fdf4" stroke="#86efac"/><text x="1035" y="676" font-family="Arial" font-size="16" font-weight="900" fill="#14532d">Rick Review Required</text></g><text x="60" y="820" font-family="Arial" font-size="18" font-weight="900" fill="#7c2d12">Sample output — not customer work · Staged demo using sample information</text></svg>