<svg xmlns="http://www.w3.org/2000/svg" width="1400" height="900" viewBox="0 0 1400 900"><defs><filter id="s"><feDropShadow dx="0" dy="16" stdDeviation="16" flood-color="#0f172a" flood-opacity=".18"/></filter></defs><rect width="1400" height="900" rx="34" fill="#fffaf3"/><rect x="40" y="32" width="1320" height="84" rx="24" fill="#111827"/><text x="76" y="82" font-family="Arial" font-size="32" font-weight="900" fill="#fff">Business Cleanup Starter — finished dashboard preview</text><text x="1030" y="82" font-family="Arial" font-size="16" font-weight="800" fill="#fed7aa">Sample output — not customer work</text><g filter="url(#s)"><rect x="58" y="150" width="1284" height="600" rx="28" fill="#fff"/><rect x="92" y="188" width="1220" height="58" rx="16" fill="#dbeafe"/><text x="122" y="225" font-family="Arial" font-size="24" font-weight="900" fill="#1e3a8a">Lead / quote / file / follow-up tracker</text><rect x="92" y="286" width="260" height="112" rx="20" fill="#ecfeff" stroke="#67e8f9"/><text x="122" y="328" font-family="Arial" font-size="18" font-weight="900" fill="#155e75">Request</text><text x="122" y="366" font-family="Arial" font-size="30" font-weight="900" fill="#155e75">Captured</text><rect x="382" y="286" width="260" height="112" rx="20" fill="#fff7ed" stroke="#fed7aa"/><text x="412" y="328" font-family="Arial" font-size="18" font-weight="900" fill="#7c2d12">Quote</text><text x="412" y="366" font-family="Arial" font-size="30" font-weight="900" fill="#7c2d12">Draft</text><rect x="672" y="286" width="260" height="112" rx="20" fill="#f0fdf4" stroke="#86efac"/><text x="702" y="328" font-family="Arial" font-size="18" font-weight="900" fill="#14532d">Files</text><text x="702" y="366" font-family="Arial" font-size="30" font-weight="900" fill="#14532d">Sorted</text><rect x="962" y="286" width="260" height="112" rx="20" fill="#fee2e2" stroke="#fecaca"/><text x="992" y="328" font-family="Arial" font-size="18" font-weight="900" fill="#991b1b">Reply</text><text x="992" y="366" font-family="Arial" font-size="30" font-weight="900" fill="#991b1b">Draft only</text><rect x="92" y="440" width="1220" height="198" rx="20" fill="#f8fafc" stroke="#cbd5e1"/><text x="122" y="482" font-family="Arial" font-size="20" font-weight="900" fill="#111827">Tracker result</text><rect x="122" y="510" width="1160" height="42" fill="#e0f2fe"/><text x="146" y="537" font-family="Arial" font-size="15" font-weight="900" fill="#075985">Name</text><text x="342" y="537" font-family="Arial" font-size="15" font-weight="900" fill="#075985">Product</text><text x="560" y="537" font-family="Arial" font-size="15" font-weight="900" fill="#075985">Files</text><text x="750" y="537" font-family="Arial" font-size="15" font-weight="900" fill="#075985">Quote</text><text x="938" y="537" font-family="Arial" font-size="15" font-weight="900" fill="#075985">Status</text><text x="146" y="586" font-family="Arial" font-size="16" fill="#111827">Sample Garage Bay</text><text x="342" y="586" font-family="Arial" font-size="16" fill="#111827">Problem Snapshot</text><text x="560" y="586" font-family="Arial" font-size="16" fill="#111827">Photos + notes</text><text x="750" y="586" font-family="Arial" font-size="16" fill="#111827">Draft</text><text x="938" y="586" font-family="Arial" font-size="16" font-weight="900" fill="#7c2d12">Review Required</text><rect x="92" y="666" width="1220" height="56" rx="16" fill="#f0fdf4" stroke="#86efac"/><text x="122" y="702" font-family="Arial" font-size="18" font-weight="900" fill="#14532d">Rick Review Required / Owner Approval Required</text></g><text x="60" y="820" font-family="Arial" font-size="18" font-weight="900" fill="#7c2d12">Hypothetical example · Staged demo using sample information</text></svg>