<svg xmlns="http://www.w3.org/2000/svg" width="1600" height="900" viewBox="0 0 1600 900" role="img" aria-labelledby="title desc">
  <title id="title">Live Proof Products and Workflow staged demo board</title>
  <desc id="desc">A wide staged demo proof board showing under-250 products, result previews, functional proof, Gmail draft proof, and final approval requirement. Not customer work.</desc>
  <defs>
    <linearGradient id="bg" x1="0" y1="0" x2="1" y2="1"><stop offset="0" stop-color="#fffaf3"/><stop offset="1" stop-color="#f5efe6"/></linearGradient>
    <filter id="shadow" x="-20%" y="-20%" width="140%" height="140%"><feDropShadow dx="0" dy="18" stdDeviation="18" flood-color="#221b14" flood-opacity=".16"/></filter>
    <style>
      .font{font-family:Inter,Segoe UI,Arial,sans-serif}.tiny{font-size:18px}.small{font-size:22px}.mid{font-size:28px}.big{font-size:50px}.heavy{font-weight:900}.bold{font-weight:800}.muted{fill:#64748b}.dark{fill:#111827}.accent{fill:#8a3a18}.green{fill:#14532d}.line{stroke:#d9c8b7;stroke-width:2}.card{fill:#fffefb;stroke:#d9c8b7;stroke-width:2}.screen{fill:#0f172a}.paper{fill:#f8fafc}.safe{fill:#fff4ea;stroke:#e7b98e;stroke-width:2}.ok{fill:#f0fdf4;stroke:#bbf7d0;stroke-width:2}
    </style>
  </defs>
  <rect width="1600" height="900" rx="44" fill="url(#bg)"/>
  <rect x="52" y="46" width="1496" height="808" rx="36" class="card" filter="url(#shadow)"/>
  <rect x="86" y="82" width="355" height="42" rx="21" fill="#f0ddca"/>
  <text x="111" y="110" class="font small heavy accent">LIVE PROOF: PRODUCTS + WORKFLOW</text>
  <text x="86" y="178" class="font big heavy dark">Under-$250 products with working proof path</text>
  <text x="86" y="222" class="font small muted">Staged demo using sample information — not customer work. Draft results require final Rick/user approval.</text>
  <rect x="86" y="252" width="1428" height="62" rx="20" class="ok"/>
  <text x="116" y="292" class="font small heavy green">System produces draft results internally. Final Rick/user approval is required before customer-facing delivery.</text>

  <g transform="translate(86 348)">
    <rect width="210" height="82" rx="20" class="safe"/><text x="22" y="34" class="font small heavy accent">Live site loads</text><text x="22" y="62" class="font tiny dark">GitHub Pages public site</text>
    <rect x="238" width="210" height="82" rx="20" class="safe"/><text x="260" y="34" class="font small heavy accent">Sample page loads</text><text x="260" y="62" class="font tiny dark">Proof page is visible</text>
    <rect x="476" width="210" height="82" rx="20" class="safe"/><text x="498" y="34" class="font small heavy accent">Request form works</text><text x="498" y="62" class="font tiny dark">Start Request opens form</text>
    <rect x="714" width="210" height="82" rx="20" class="safe"/><text x="736" y="34" class="font small heavy accent">Submission captured</text><text x="736" y="62" class="font tiny dark">Intake can enter tracker</text>
    <rect x="952" width="210" height="82" rx="20" class="safe"/><text x="974" y="34" class="font small heavy accent">Gmail draft proof</text><text x="974" y="62" class="font tiny dark">Draft only, not sent</text>
    <rect x="1190" width="238" height="82" rx="20" class="safe"/><text x="1212" y="34" class="font small heavy accent">Approval required</text><text x="1212" y="62" class="font tiny dark">Rick/user final gate</text>
  </g>

  <g transform="translate(86 468)">
    <rect width="316" height="270" rx="24" class="card"/>
    <rect x="22" y="22" width="272" height="132" rx="16" class="screen"/>
    <rect x="44" y="48" width="72" height="70" rx="9" fill="#64748b"/><rect x="128" y="62" width="48" height="56" rx="8" fill="#94a3b8"/><rect x="188" y="42" width="72" height="76" rx="9" fill="#334155"/><rect x="44" y="134" width="216" height="10" rx="5" fill="#ef4444"/>
    <text x="22" y="186" class="font mid heavy dark">Problem Snapshot</text><text x="22" y="220" class="font tiny muted">First move + missing-info list</text><text x="22" y="246" class="font tiny accent">Sample output — not customer work</text>

    <rect x="346" width="316" height="270" rx="24" class="card"/>
    <rect x="368" y="22" width="272" height="132" rx="16" fill="#f8fafc" stroke="#cbd5e1" stroke-width="2"/><rect x="394" y="50" width="78" height="74" rx="8" fill="#bae6fd"/><rect x="488" y="50" width="70" height="34" rx="8" fill="#bbf7d0"/><rect x="488" y="96" width="70" height="34" rx="8" fill="#fed7aa"/><rect x="572" y="50" width="48" height="80" rx="8" fill="#ddd6fe"/><rect x="394" y="142" width="98" height="8" rx="4" fill="#22c55e"/>
    <text x="368" y="186" class="font mid heavy dark">Basic Layout Snapshot</text><text x="368" y="220" class="font tiny muted">Zones + measurement checklist</text><text x="368" y="246" class="font tiny accent">Staged demo using sample info</text>

    <rect x="692" width="316" height="270" rx="24" class="card"/>
    <rect x="714" y="22" width="272" height="132" rx="16" class="screen"/><rect x="742" y="58" width="70" height="66" rx="8" fill="#475569"/><rect x="836" y="58" width="70" height="66" rx="8" fill="#475569"/><rect x="930" y="58" width="40" height="66" rx="8" fill="#475569"/><rect x="742" y="142" width="210" height="8" rx="4" fill="#22c55e"/>
    <text x="714" y="186" class="font mid heavy dark">Shop Flow Review</text><text x="714" y="220" class="font tiny muted">Bay flow + first fixes</text><text x="714" y="246" class="font tiny accent">Hypothetical example</text>

    <rect x="1038" width="316" height="270" rx="24" class="card"/>
    <rect x="1060" y="22" width="272" height="132" rx="16" fill="#f8fafc" stroke="#cbd5e1" stroke-width="2"/><rect x="1090" y="52" width="66" height="78" rx="8" fill="#dbeafe"/><rect x="1170" y="52" width="66" height="78" rx="8" fill="#dcfce7"/><rect x="1250" y="52" width="66" height="78" rx="8" fill="#ffedd5"/><rect x="1090" y="142" width="200" height="8" rx="4" fill="#22c55e"/>
    <text x="1060" y="186" class="font mid heavy dark">Project Packet Lite</text><text x="1060" y="220" class="font tiny muted">Phases + build order</text><text x="1060" y="246" class="font tiny accent">Sample output — not customer work</text>
  </g>

  <g transform="translate(86 760)">
    <rect width="416" height="54" rx="18" fill="#f8fafc" stroke="#cbd5e1"/><text x="24" y="35" class="font small heavy dark">Business Cleanup Starter · quote path + tracker</text>
    <rect x="440" width="366" height="54" rx="18" fill="#f8fafc" stroke="#cbd5e1"/><text x="464" y="35" class="font small heavy dark">Cleanup Rescue Pack · folder map + index</text>
    <rect x="830" width="460" height="54" rx="18" fill="#f8fafc" stroke="#cbd5e1"/><text x="854" y="35" class="font small heavy dark">Workflow Opportunity Snapshot · safe draft workflow</text>
  </g>
</svg>
