<svg xmlns="http://www.w3.org/2000/svg" width="1800" height="1180" viewBox="0 0 1800 1180" role="img" aria-labelledby="title desc">
<title id="title">Highway 38 Solutions deliverable product proof board</title>
<desc id="desc">Sharp staged deliverable examples for all seven approved products with garage photos, CAD layout, workflow proof, Gmail draft proof, and approval gate.</desc>
<style>
  .bg{fill:#f7f4ee}.navy{fill:#071a33}.orange{fill:#f26a21}.card{fill:#fff;stroke:#cbd5e1;stroke-width:2}.soft{fill:#f8fafc}.line{stroke:#0f172a;stroke-width:2}.thin{stroke:#94a3b8;stroke-width:1}.txt{font-family:Arial,Helvetica,sans-serif;fill:#0f172a}.white{fill:#fff}.small{font-size:15px}.xs{font-size:12px}.med{font-size:19px;font-weight:700}.head{font-size:24px;font-weight:800}.big{font-size:34px;font-weight:900}.label{font-size:12px;font-weight:700;letter-spacing:.04em}.green{fill:#16a34a}.red{fill:#dc2626}.blue{fill:#2563eb}.muted{fill:#64748b}.photoDark{fill:#141923}.garageWall{fill:#2f3744}.floor{fill:#7b6956}.wood{fill:#8b5a2b}.box{fill:#b7793b}.tool{stroke:#e5e7eb;stroke-width:3;stroke-linecap:round}.cadBlue{fill:#dbeafe;stroke:#0284c7}.cadGreen{fill:#dcfce7;stroke:#16a34a}.cadPurple{fill:#ede9fe;stroke:#7c3aed}.cadYellow{fill:#fef3c7;stroke:#f59e0b}.cadGray{fill:#e5e7eb;stroke:#64748b}.ok{fill:#15803d}.bad{fill:#b91c1c}.badge{fill:#fff7ed;stroke:#fb923c;stroke-width:1}.button{fill:#0f172a}.docLine{stroke:#cbd5e1;stroke-width:2}.shadow{filter:drop-shadow(0 6px 14px rgba(15,23,42,.18))}
</style>
<rect class="bg" width="1800" height="1180"/>
<rect class="navy" width="1800" height="58"/>
<text x="28" y="38" class="txt white head">Highway <tspan class="orange">38</tspan> Solutions</text>
<text x="620" y="38" class="txt white head">Messy details in. Finished product out.</text>
<text x="1450" y="35" class="txt white label">SAMPLE OUTPUTS — NOT CUSTOMER WORK</text>
<text x="34" y="102" class="txt orange label">LIVE PROOF: ALL APPROVED UNDER-$250 PRODUCTS</text>
<text x="34" y="145" class="txt big">Deliverable product examples + working proof path.</text>
<text x="34" y="176" class="txt med muted">Staged sample information. Not customer work. Draft results require Rick/user final approval before delivery.</text>

<!-- Large hero deliverable: garage before and CAD after -->
<g transform="translate(34,205)">
  <rect class="card shadow" width="1732" height="410" rx="18"/>
  <rect class="navy" width="1732" height="42" rx="18"/>
  <text x="18" y="29" class="txt white head">1. Problem Snapshot + 2. Basic Layout Snapshot — Before photo, issue report, professional CAD-style layout</text>
  <g transform="translate(24,62)">
    <text x="0" y="-12" class="txt label">BEFORE: CLUTTERED GARAGE / BOXES / TOOLS / BLOCKED WORK LANES</text>
    <rect class="photoDark" width="520" height="260" rx="10"/>
    <rect x="0" y="0" width="520" height="58" fill="#303846" rx="10"/>
    <rect x="0" y="214" width="520" height="46" class="floor" rx="0"/>
    <!-- shelves -->
    <g>
      <rect x="16" y="48" width="130" height="12" fill="#8b5a2b"/><rect x="16" y="92" width="130" height="12" fill="#8b5a2b"/><rect x="16" y="136" width="130" height="12" fill="#8b5a2b"/>
      <rect x="376" y="48" width="124" height="12" fill="#8b5a2b"/><rect x="376" y="92" width="124" height="12" fill="#8b5a2b"/><rect x="376" y="136" width="124" height="12" fill="#8b5a2b"/>
      <rect x="26" y="65" width="34" height="25" class="box"/><rect x="70" y="60" width="45" height="30" fill="#64748b"/><rect x="390" y="63" width="42" height="28" class="box"/><rect x="442" y="61" width="38" height="30" fill="#334155"/>
    </g>
    <!-- boxes/tool carts -->
    <rect x="170" y="130" width="75" height="52" class="box"/><rect x="258" y="117" width="65" height="64" fill="#475569"/><rect x="337" y="142" width="72" height="45" class="box"/>
    <rect x="50" y="172" width="82" height="70" fill="#b45309"/><rect x="150" y="195" width="68" height="48" class="box"/><rect x="236" y="190" width="96" height="55" fill="#6b7280"/><rect x="355" y="190" width="72" height="52" class="box"/>
    <rect x="18" y="180" width="112" height="58" fill="#b91c1c" rx="4"/><line x1="30" y1="197" x2="118" y2="197" stroke="#fecaca"/><line x1="30" y1="214" x2="118" y2="214" stroke="#fecaca"/>
    <circle cx="458" cy="218" r="26" fill="none" stroke="#111827" stroke-width="8"/><circle cx="462" cy="218" r="8" fill="#111827"/><path d="M448 199 L430 168 M476 204 L498 176" class="tool"/>
    <circle cx="432" cy="239" r="10" fill="#111827"/><circle cx="496" cy="239" r="10" fill="#111827"/>
    <path d="M205 91 l-14 22 M225 88 l-5 26 M245 90 l8 22" class="tool"/>
    <text x="18" y="288" class="txt med">Top problems identified</text>
    <circle cx="23" cy="319" r="12" class="bad"/><text x="19" y="324" class="txt white xs">×</text><text x="44" y="324" class="txt small">No clear work zones; tools and parts hard to find</text>
    <circle cx="23" cy="347" r="12" class="bad"/><text x="19" y="352" class="txt white xs">×</text><text x="44" y="352" class="txt small">Boxes block access, workbench, and safe walking space</text>
  </g>
  <g transform="translate(610,62)">
    <text x="0" y="-12" class="txt label">AFTER: PROFESSIONAL CAD-STYLE LAYOUT PLAN WITH RESULTS</text>
    <rect class="soft" width="760" height="305" rx="12" stroke="#cbd5e1"/>
    <rect x="38" y="28" width="560" height="240" fill="#fff" stroke="#111827" stroke-width="4"/>
    <!-- grid -->
    <g opacity=".45">
      <path d="M78 28 V268 M118 28 V268 M158 28 V268 M198 28 V268 M238 28 V268 M278 28 V268 M318 28 V268 M358 28 V268 M398 28 V268 M438 28 V268 M478 28 V268 M518 28 V268 M558 28 V268" class="thin"/>
      <path d="M38 68 H598 M38 108 H598 M38 148 H598 M38 188 H598 M38 228 H598" class="thin"/>
    </g>
    <line x1="38" y1="287" x2="598" y2="287" class="line"/><text x="272" y="301" class="txt label">28'-0" WALL • CONFIRM DOOR TRACK + OUTLET LOCATIONS</text>
    <line x1="18" y1="28" x2="18" y2="268" class="line"/><text x="3" y="150" transform="rotate(-90 3,150)" class="txt label">24'-0"</text>
    <rect x="78" y="78" width="240" height="126" class="cadBlue" rx="8"/><text x="126" y="122" class="txt med">WORK AREA</text><text x="136" y="150" class="txt small">12'-0" × 10'-0"</text>
    <rect x="336" y="78" width="170" height="126" class="cadGreen" rx="8"/><text x="374" y="122" class="txt med">TOOL AREA</text><text x="384" y="150" class="txt small">8'-0" × 10'-0"</text>
    <rect x="506" y="78" width="84" height="168" class="cadPurple" rx="8"/><text x="520" y="137" class="txt med">STORAGE</text><text x="520" y="164" class="txt small">8'×12'</text>
    <rect x="122" y="204" width="196" height="52" class="cadYellow" rx="8"/><text x="176" y="236" class="txt med">PROJECT AREA</text>
    <rect x="336" y="204" width="170" height="52" class="cadGray" rx="8"/><text x="372" y="236" class="txt med">EQUIPMENT</text>
    <text x="632" y="62" class="txt med">Zone legend</text><rect x="632" y="82" width="18" height="18" class="cadBlue"/><text x="660" y="97" class="txt small">Work Area</text><rect x="632" y="112" width="18" height="18" class="cadGreen"/><text x="660" y="127" class="txt small">Tool Area</text><rect x="632" y="142" width="18" height="18" class="cadPurple"/><text x="660" y="157" class="txt small">Storage</text><rect x="632" y="172" width="18" height="18" class="cadYellow"/><text x="660" y="187" class="txt small">Project Area</text>
    <text x="0" y="335" class="txt med">Results: more usable floor space • faster finding • safer workflow • clear next steps</text>
  </g>
  <g transform="translate(1410,62)">
    <rect class="badge" width="285" height="305" rx="14"/>
    <text x="22" y="42" class="txt head red">Rick Review Required</text>
    <text x="22" y="78" class="txt small">Draft-only sample output.</text>
    <text x="22" y="105" class="txt small">No customer-facing delivery</text>
    <text x="22" y="132" class="txt small">until Rick/user approves.</text>
    <rect x="22" y="178" width="240" height="58" rx="8" class="red"/><text x="62" y="214" class="txt white med">Approval Gate</text>
  </g>
</g>

<!-- Seven product deliverable cards -->
<g transform="translate(34,650)">
  <text x="0" y="-18" class="txt head">Final Product Examples — each approved product has a visible deliverable sample</text>
  <g transform="translate(0,0)">
    <rect class="card" width="245" height="280" rx="12"/><rect class="navy" width="245" height="34" rx="12"/><text x="12" y="23" class="txt white med">Problem Snapshot</text>
    <rect x="14" y="50" width="95" height="85" class="photoDark" rx="6"/><rect x="24" y="96" width="30" height="24" class="box"/><rect x="61" y="82" width="30" height="38" fill="#64748b"/><path d="M17 129 H105" stroke="#ef4444" stroke-width="6"/>
    <text x="124" y="58" class="txt label">Top Problems</text><circle cx="130" cy="82" r="9" class="bad"/><text x="146" y="87" class="txt xs">Blocked lane</text><circle cx="130" cy="107" r="9" class="bad"/><text x="146" y="112" class="txt xs">Missing info</text><circle cx="130" cy="132" r="9" class="bad"/><text x="146" y="137" class="txt xs">No first step</text>
    <text x="14" y="170" class="txt small">One-page report with</text><text x="14" y="191" class="txt small">issues + next actions.</text><rect x="14" y="230" width="180" height="28" class="badge" rx="8"/><text x="24" y="249" class="txt xs">Sample output — not customer work</text>
  </g>
  <g transform="translate(260,0)">
    <rect class="card" width="245" height="280" rx="12"/><rect class="navy" width="245" height="34" rx="12"/><text x="12" y="23" class="txt white med">Basic Layout</text>
    <rect x="14" y="52" width="218" height="145" fill="#fff" stroke="#cbd5e1"/><path d="M36 52 V197 M72 52 V197 M108 52 V197 M144 52 V197 M180 52 V197 M216 52 V197 M14 88 H232 M14 124 H232 M14 160 H232" class="thin"/>
    <rect x="42" y="78" width="80" height="66" class="cadBlue" rx="6"/><rect x="136" y="78" width="58" height="46" class="cadGreen" rx="6"/><rect x="158" y="132" width="58" height="48" class="cadPurple" rx="6"/><text x="55" y="113" class="txt xs">Work</text><text x="146" y="105" class="txt xs">Tools</text><text x="168" y="160" class="txt xs">Storage</text>
    <text x="14" y="222" class="txt small">CAD-style zone drawing</text><text x="14" y="243" class="txt small">with notes + dimensions.</text>
  </g>
  <g transform="translate(520,0)">
    <rect class="card" width="245" height="280" rx="12"/><rect class="navy" width="245" height="34" rx="12"/><text x="12" y="23" class="txt white med">Shop Flow Review</text>
    <g transform="translate(24,60)"><rect width="82" height="28" class="cadBlue" rx="7"/><text x="22" y="19" class="txt xs">Intake</text><path d="M86 14 H118" stroke="#2563eb" stroke-width="4" marker-end="url(#arrow)"/><rect x="122" width="82" height="28" class="cadGreen" rx="7"/><text x="149" y="19" class="txt xs">Quote</text><path d="M163 30 V60" stroke="#2563eb" stroke-width="4"/><rect x="122" y="66" width="82" height="28" class="cadYellow" rx="7"/><text x="143" y="85" class="txt xs">Job</text><path d="M118 80 H86" stroke="#2563eb" stroke-width="4"/><rect y="66" width="82" height="28" class="cadPurple" rx="7"/><text x="21" y="85" class="txt xs">Pickup</text></g>
    <text x="14" y="190" class="txt small">Visual map of request</text><text x="14" y="211" class="txt small">to quote to completed job.</text><rect x="14" y="230" width="150" height="28" class="badge" rx="8"/><text x="24" y="249" class="txt xs">Flow proof sample</text>
  </g>
  <g transform="translate(780,0)">
    <rect class="card" width="245" height="280" rx="12"/><rect class="navy" width="245" height="34" rx="12"/><text x="12" y="23" class="txt white med">Project Packet Lite</text>
    <rect x="14" y="52" width="218" height="160" fill="#fff" stroke="#cbd5e1"/><text x="26" y="80" class="txt med blue">Workbench Project</text><line x1="26" y1="96" x2="210" y2="96" class="docLine"/><text x="26" y="122" class="txt xs">Scope: build bench + wall storage</text><text x="26" y="145" class="txt xs">Materials: lumber, pegboard, screws</text><rect x="132" y="116" width="70" height="54" fill="#d6a56d" stroke="#7c2d12"/><path d="M132 170 H202 M143 116 V170 M190 116 V170" stroke="#7c2d12"/>
    <text x="14" y="236" class="txt small">Scope, materials, steps,</text><text x="14" y="257" class="txt small">owner-use packet.</text>
  </g>
  <g transform="translate(1040,0)">
    <rect class="card" width="245" height="280" rx="12"/><rect class="navy" width="245" height="34" rx="12"/><text x="12" y="23" class="txt white med">Business Cleanup</text>
    <rect x="14" y="52" width="218" height="160" fill="#fff" stroke="#cbd5e1"/><text x="26" y="78" class="txt med">Cleanup Checklist</text><line x1="26" y1="94" x2="208" y2="94" class="docLine"/><text x="30" y="118" class="txt xs">Files</text><text x="104" y="118" class="txt xs">Organize</text><circle cx="196" cy="114" r="8" class="ok"/><text x="30" y="143" class="txt xs">Quotes</text><text x="104" y="143" class="txt xs">Review</text><circle cx="196" cy="139" r="8" class="ok"/><text x="30" y="168" class="txt xs">Jobs</text><text x="104" y="168" class="txt xs">Tracker</text><circle cx="196" cy="164" r="8" class="ok"/>
    <text x="14" y="236" class="txt small">Checklist/table preview</text><text x="14" y="257" class="txt small">for files, jobs, quotes.</text>
  </g>
  <g transform="translate(1300,0)">
    <rect class="card" width="245" height="280" rx="12"/><rect class="navy" width="245" height="34" rx="12"/><text x="12" y="23" class="txt white med">Cleanup Rescue</text>
    <rect x="14" y="52" width="218" height="160" fill="#fff" stroke="#cbd5e1"/><text x="26" y="78" class="txt med">Folder Rescue Plan</text><text x="28" y="110" class="txt xs">📁 01_ACTIVE_JOBS</text><text x="48" y="133" class="txt xs">📁 Quotes</text><text x="48" y="156" class="txt xs">📁 Photos</text><text x="28" y="181" class="txt xs">📁 02_CLIENTS</text><rect x="142" y="104" width="72" height="66" class="cadYellow" rx="6"/><text x="151" y="130" class="txt xs">Priority</text><text x="157" y="153" class="txt xs">High</text>
    <text x="14" y="236" class="txt small">Folder map + rescue</text><text x="14" y="257" class="txt small">plan with priority table.</text>
  </g>
  <g transform="translate(1560,0)">
    <rect class="card" width="205" height="280" rx="12"/><rect class="navy" width="205" height="34" rx="12"/><text x="12" y="23" class="txt white med">Workflow Snapshot</text>
    <rect x="14" y="52" width="177" height="160" fill="#fff" stroke="#cbd5e1"/><text x="24" y="78" class="txt med">Opportunity Report</text><rect x="26" y="100" width="140" height="30" class="badge"/><text x="34" y="120" class="txt xs">Bottleneck: manual follow-up</text><path d="M28 158 H170" stroke="#2563eb" stroke-width="4"/><circle cx="42" cy="158" r="10" class="blue"/><circle cx="92" cy="158" r="10" class="blue"/><circle cx="142" cy="158" r="10" class="blue"/><text x="26" y="190" class="txt xs">Draft workflow + approval</text>
    <text x="14" y="236" class="txt small">Automation opportunity</text><text x="14" y="257" class="txt small">with safe draft path.</text>
  </g>
</g>

<!-- Workflow proof -->
<defs><marker id="arrow" markerWidth="10" markerHeight="10" refX="8" refY="3" orient="auto"><path d="M0,0 L0,6 L9,3 z" fill="#2563eb"/></marker></defs>
<g transform="translate(34,970)">
  <rect class="card" width="1040" height="160" rx="14"/><rect class="navy" width="1040" height="34" rx="14"/><text x="18" y="24" class="txt white med">How it works — real system proof path</text>
  <g transform="translate(24,58)">
    <rect width="120" height="70" class="soft" rx="8" stroke="#cbd5e1"/><text x="20" y="30" class="txt xs">1. Request</text><text x="18" y="52" class="txt xs">Form submitted</text>
    <path d="M132 36 H172" stroke="#2563eb" stroke-width="5" marker-end="url(#arrow)"/>
    <rect x="185" width="120" height="70" class="soft" rx="8" stroke="#cbd5e1"/><text x="205" y="30" class="txt xs">2. Tracker</text><text x="203" y="52" class="txt xs">Auto row</text>
    <path d="M317 36 H357" stroke="#2563eb" stroke-width="5" marker-end="url(#arrow)"/>
    <rect x="370" width="120" height="70" class="soft" rx="8" stroke="#cbd5e1"/><text x="388" y="30" class="txt xs">3. Sample</text><text x="390" y="52" class="txt xs">Draft result</text>
    <path d="M502 36 H542" stroke="#2563eb" stroke-width="5" marker-end="url(#arrow)"/>
    <rect x="555" width="120" height="70" class="soft" rx="8" stroke="#cbd5e1"/><text x="578" y="30" class="txt xs">4. Gmail</text><text x="576" y="52" class="txt xs">Draft only</text>
    <path d="M687 36 H727" stroke="#2563eb" stroke-width="5" marker-end="url(#arrow)"/>
    <rect x="740" width="120" height="70" class="soft" rx="8" stroke="#cbd5e1"/><text x="760" y="30" class="txt xs">5. Rick</text><text x="760" y="52" class="txt xs">Review gate</text>
    <path d="M872 36 H912" stroke="#2563eb" stroke-width="5" marker-end="url(#arrow)"/>
    <rect x="925" width="90" height="70" class="soft" rx="8" stroke="#cbd5e1"/><text x="940" y="30" class="txt xs">6. Send</text><text x="938" y="52" class="txt xs">After OK</text>
  </g>
</g>
<g transform="translate(1100,970)">
  <rect class="card" width="320" height="160" rx="14"/><rect class="navy" width="320" height="34" rx="14"/><text x="18" y="24" class="txt white med">Gmail Draft Proof</text>
  <text x="22" y="64" class="txt xs">To: customer@example.com</text><text x="22" y="88" class="txt xs">Subject: Your Job Packet Draft</text><line x1="22" y1="98" x2="292" y2="98" class="docLine"/><text x="22" y="122" class="txt xs">Draft attached. Not sent.</text><rect x="22" y="132" width="120" height="20" fill="#dbeafe" rx="5"/><text x="32" y="147" class="txt xs">Job Packet Draft.pdf</text>
</g>
<g transform="translate(1440,970)">
  <rect class="card" width="326" height="160" rx="14"/><rect class="red" width="326" height="34" rx="14"/><text x="18" y="24" class="txt white med">Approval Gate Always Active</text>
  <text x="22" y="72" class="txt med red">Rick Review Required</text><text x="22" y="102" class="txt small">Nothing is sent or delivered until</text><text x="22" y="126" class="txt small">Rick/user reviews and approves.</text>
</g>
<text x="610" y="1160" class="txt label">HIGHWAY 38 SOLUTIONS • SAMPLE OUTPUT — NOT CUSTOMER WORK • FINAL APPROVAL REQUIRED BEFORE DELIVERY</text>
</svg>