<svg xmlns="http://www.w3.org/2000/svg" width="1600" height="1000" viewBox="0 0 1600 1000"><defs><filter id="s"><feDropShadow dx="0" dy="22" stdDeviation="20" flood-color="#0f172a" flood-opacity=".18"/></filter></defs><rect width="1600" height="1000" rx="36" fill="#f8fafc"/><rect x="52" y="42" width="1496" height="88" rx="24" fill="#0f172a"/><text x="88" y="95" font-family="Arial" font-size="34" font-weight="900" fill="#fff">Project Packet Lite — finished packet preview</text><text x="1220" y="94" font-family="Arial" font-size="16" font-weight="900" fill="#fed7aa">Hypothetical example</text><g filter="url(#s)"><rect x="80" y="160" width="410" height="700" rx="30" fill="#fff"/><rect x="120" y="204" width="330" height="130" rx="22" fill="#dbeafe"/><text x="150" y="258" font-family="Arial" font-size="28" font-weight="900" fill="#1e3a8a">Packet cover</text><text x="150" y="296" font-family="Arial" font-size="18" fill="#1e3a8a">Sample project plan</text><rect x="120" y="390" width="330" height="350" rx="22" fill="#fffaf3" stroke="#d9c8b7"/><text x="150" y="436" font-family="Arial" font-size="22" font-weight="900" fill="#111827">Contents</text><text x="150" y="486" font-family="Arial" font-size="18" fill="#111827">01 Scope summary</text><text x="150" y="528" font-family="Arial" font-size="18" fill="#111827">02 Materials groups</text><text x="150" y="570" font-family="Arial" font-size="18" fill="#111827">03 Phase plan</text><text x="150" y="612" font-family="Arial" font-size="18" fill="#111827">04 Measurement list</text><text x="150" y="654" font-family="Arial" font-size="18" fill="#111827">05 Review checklist</text></g><g filter="url(#s)"><rect x="540" y="160" width="980" height="700" rx="30" fill="#fff"/><rect x="584" y="206" width="892" height="66" rx="18" fill="#dbeafe"/><text x="620" y="248" font-family="Arial" font-size="27" font-weight="900" fill="#1e3a8a">Scope / Materials / Steps</text><rect x="584" y="320" width="282" height="360" rx="22" fill="#fff7ed" stroke="#fed7aa"/><text x="620" y="366" font-family="Arial" font-size="24" font-weight="900" fill="#7c2d12">Scope</text><text x="620" y="418" font-family="Arial" font-size="18" fill="#111827">• Clear one lane</text><text x="620" y="460" font-family="Arial" font-size="18" fill="#111827">• Define tool wall</text><text x="620" y="502" font-family="Arial" font-size="18" fill="#111827">• Stage projects</text><text x="620" y="544" font-family="Arial" font-size="18" fill="#111827">• Choose storage path</text><rect x="914" y="320" width="282" height="360" rx="22" fill="#f0fdf4" stroke="#86efac"/><text x="950" y="366" font-family="Arial" font-size="24" font-weight="900" fill="#14532d">Materials</text><text x="950" y="418" font-family="Arial" font-size="18" fill="#111827">• Tape labels</text><text x="950" y="460" font-family="Arial" font-size="18" fill="#111827">• Sort bins</text><text x="950" y="502" font-family="Arial" font-size="18" fill="#111827">• Wall shelves</text><text x="950" y="544" font-family="Arial" font-size="18" fill="#111827">• Tool wall</text><rect x="1244" y="320" width="232" height="360" rx="22" fill="#eef2ff" stroke="#c7d2fe"/><text x="1280" y="366" font-family="Arial" font-size="24" font-weight="900" fill="#3730a3">Steps</text><text x="1280" y="418" font-family="Arial" font-size="18" fill="#111827">1 Measure</text><text x="1280" y="460" font-family="Arial" font-size="18" fill="#111827">2 Clear</text><text x="1280" y="502" font-family="Arial" font-size="18" fill="#111827">3 Sort</text><text x="1280" y="544" font-family="Arial" font-size="18" fill="#111827">4 Review</text><rect x="584" y="730" width="892" height="66" rx="18" fill="#f0fdf4" stroke="#86efac"/><text x="620" y="772" font-family="Arial" font-size="20" font-weight="900" fill="#14532d">Rick Review Required / Owner Approval Required</text></g><text x="80" y="926" font-family="Arial" font-size="20" font-weight="900" fill="#7c2d12">Sample output — not customer work</text></svg>