<svg xmlns="http://www.w3.org/2000/svg" width="1600" height="1000" viewBox="0 0 1600 1000"><defs><marker id="arrow" markerWidth="12" markerHeight="12" refX="10" refY="6" orient="auto"><path d="M0 0L12 6L0 12Z" fill="#2563eb"/></marker><linearGradient id="bg" x1="0" y1="0" x2="1" y2="1"><stop stop-color="#fff7ed"/><stop offset="1" stop-color="#eef2ff"/></linearGradient><filter id="s"><feDropShadow dx="0" dy="22" stdDeviation="20" flood-color="#0f172a" flood-opacity=".18"/></filter></defs><rect width="1600" height="1000" rx="36" fill="url(#bg)"/><rect x="52" y="42" width="1496" height="88" rx="24" fill="#0f172a"/><text x="88" y="95" font-family="Arial" font-size="34" font-weight="900" fill="#fff">Shop Flow Review — consultant-style workflow deliverable</text><text x="1192" y="94" font-family="Arial" font-size="16" font-weight="900" fill="#fed7aa">Sample output — not customer work</text><g filter="url(#s)"><rect x="64" y="164" width="1472" height="278" rx="30" fill="#fff"/><text x="104" y="214" font-family="Arial" font-size="26" font-weight="900" fill="#991b1b">Current bottlenecks found</text><rect x="104" y="260" width="315" height="110" rx="20" fill="#fee2e2" stroke="#fca5a5"/><text x="134" y="304" font-family="Arial" font-size="21" font-weight="900" fill="#991b1b">Parts in work lane</text><text x="134" y="340" font-family="Arial" font-size="17" fill="#991b1b">vehicle/work movement blocked</text><rect x="462" y="260" width="315" height="110" rx="20" fill="#fee2e2" stroke="#fca5a5"/><text x="492" y="304" font-family="Arial" font-size="21" font-weight="900" fill="#991b1b">Tools not staged</text><text x="492" y="340" font-family="Arial" font-size="17" fill="#991b1b">daily-use items mixed with storage</text><rect x="820" y="260" width="315" height="110" rx="20" fill="#fee2e2" stroke="#fca5a5"/><text x="850" y="304" font-family="Arial" font-size="21" font-weight="900" fill="#991b1b">No quality checkpoint</text><text x="850" y="340" font-family="Arial" font-size="17" fill="#991b1b">unfinished jobs drift back into clutter</text><rect x="1178" y="260" width="310" height="110" rx="20" fill="#fee2e2" stroke="#fca5a5"/><text x="1208" y="304" font-family="Arial" font-size="21" font-weight="900" fill="#991b1b">No pickup lane</text><text x="1208" y="340" font-family="Arial" font-size="17" fill="#991b1b">finished work has no home</text></g><g filter="url(#s)"><rect x="64" y="492" width="1472" height="356" rx="30" fill="#fff"/><text x="104" y="544" font-family="Arial" font-size="26" font-weight="900" fill="#14532d">Recommended improved flow</text><g font-family="Arial" font-weight="900" font-size="18"><rect x="116" y="610" width="170" height="98" rx="20" fill="#dbeafe" stroke="#2563eb" stroke-width="4"/><text x="168" y="668" fill="#1e3a8a">Intake</text><line x1="286" y1="659" x2="382" y2="659" stroke="#2563eb" stroke-width="6" marker-end="url(#arrow)"/><rect x="390" y="610" width="170" height="98" rx="20" fill="#dcfce7" stroke="#16a34a" stroke-width="4"/><text x="447" y="668" fill="#14532d">Sort</text><line x1="560" y1="659" x2="656" y2="659" stroke="#2563eb" stroke-width="6" marker-end="url(#arrow)"/><rect x="664" y="610" width="190" height="98" rx="20" fill="#ffedd5" stroke="#ea580c" stroke-width="4"/><text x="710" y="668" fill="#7c2d12">Work zone</text><line x1="854" y1="659" x2="950" y2="659" stroke="#2563eb" stroke-width="6" marker-end="url(#arrow)"/><rect x="958" y="610" width="190" height="98" rx="20" fill="#ede9fe" stroke="#7c3aed" stroke-width="4"/><text x="1002" y="668" fill="#4c1d95">QC check</text><line x1="1148" y1="659" x2="1244" y2="659" stroke="#2563eb" stroke-width="6" marker-end="url(#arrow)"/><rect x="1252" y="610" width="170" height="98" rx="20" fill="#cffafe" stroke="#0891b2" stroke-width="4"/><text x="1304" y="668" fill="#155e75">Pickup</text></g><rect x="116" y="758" width="378" height="54" rx="16" fill="#f0fdf4"/><text x="144" y="792" font-family="Arial" font-size="17" font-weight="900" fill="#14532d">Separate active projects from stored items</text><rect x="542" y="758" width="320" height="54" rx="16" fill="#f0fdf4"/><text x="570" y="792" font-family="Arial" font-size="17" font-weight="900" fill="#14532d">Stage tools beside work zone</text><rect x="910" y="758" width="512" height="54" rx="16" fill="#f0fdf4"/><text x="938" y="792" font-family="Arial" font-size="17" font-weight="900" fill="#14532d">Final check and pickup lane before customer delivery</text></g><text x="70" y="922" font-family="Arial" font-size="20" font-weight="900" fill="#7c2d12">Hypothetical example · Rick Review Required / Owner Approval Required</text></svg>