<svg xmlns="http://www.w3.org/2000/svg" width="1600" height="1000" viewBox="0 0 1600 1000"><defs><linearGradient id="bg" x1="0" y1="0" x2="1" y2="1"><stop stop-color="#f8fafc"/><stop offset="1" stop-color="#e0f2fe"/></linearGradient><pattern id="cad" width="32" height="32" patternUnits="userSpaceOnUse"><path d="M32 0H0V32" fill="none" stroke="#c7d2fe" stroke-width="1"/></pattern><filter id="s"><feDropShadow dx="0" dy="22" stdDeviation="20" flood-color="#0f172a" flood-opacity=".18"/></filter></defs><rect width="1600" height="1000" rx="36" fill="url(#bg)"/><rect x="52" y="42" width="1496" height="88" rx="24" fill="#0f172a"/><text x="88" y="95" font-family="Arial" font-size="34" font-weight="900" fill="#fff">Basic Layout Snapshot — CAD-style finished output</text><text x="1210" y="94" font-family="Arial" font-size="16" font-weight="900" fill="#fed7aa">Hypothetical example</text><g filter="url(#s)"><rect x="68" y="168" width="980" height="694" rx="30" fill="#fff"/><rect x="112" y="220" width="890" height="520" fill="url(#cad)" stroke="#111827" stroke-width="5"/><rect x="170" y="286" width="340" height="220" rx="8" fill="#bfdbfe" stroke="#0284c7" stroke-width="6"/><text x="265" y="408" font-family="Arial" font-size="30" font-weight="900" fill="#075985">Vehicle lane</text><rect x="558" y="286" width="186" height="126" rx="8" fill="#dcfce7" stroke="#16a34a" stroke-width="6"/><text x="600" y="356" font-family="Arial" font-size="23" font-weight="900" fill="#14532d">Tool wall</text><rect x="558" y="456" width="186" height="138" rx="8" fill="#fed7aa" stroke="#ea580c" stroke-width="6"/><text x="600" y="532" font-family="Arial" font-size="23" font-weight="900" fill="#7c2d12">Sort table</text><rect x="792" y="286" width="122" height="308" rx="8" fill="#ede9fe" stroke="#7c3aed" stroke-width="6"/><text x="846" y="570" font-family="Arial" font-size="23" font-weight="900" fill="#4c1d95" transform="rotate(-90 846 570)">Storage wall</text><line x1="112" y1="780" x2="1002" y2="780" stroke="#111827" stroke-width="5"/><text x="455" y="822" font-family="Arial" font-size="24" font-weight="900" fill="#111827">28'-0&quot; long wall</text><line x1="82" y1="220" x2="82" y2="740" stroke="#111827" stroke-width="5"/><text x="34" y="505" font-family="Arial" font-size="22" font-weight="900" fill="#111827" transform="rotate(-90 34 505)">22'-0&quot; depth</text><circle cx="952" cy="326" r="12" fill="#ef4444"/><text x="890" y="300" font-family="Arial" font-size="16" font-weight="900" fill="#ef4444">outlet?</text><circle cx="530" cy="724" r="12" fill="#ef4444"/><text x="548" y="730" font-family="Arial" font-size="16" font-weight="900" fill="#ef4444">door swing clear</text></g><g filter="url(#s)"><rect x="1090" y="168" width="442" height="694" rx="30" fill="#fff"/><rect x="1126" y="210" width="370" height="64" rx="18" fill="#dbeafe"/><text x="1154" y="251" font-family="Arial" font-size="24" font-weight="900" fill="#1e3a8a">Layout decision sheet</text><rect x="1126" y="318" width="370" height="96" rx="18" fill="#ede9fe" stroke="#7c3aed"/><text x="1156" y="356" font-family="Arial" font-size="20" font-weight="900" fill="#4c1d95">Option A</text><text x="1156" y="386" font-family="Arial" font-size="17" fill="#4c1d95">Tall shelves on right wall</text><rect x="1126" y="448" width="370" height="96" rx="18" fill="#dcfce7" stroke="#16a34a"/><text x="1156" y="486" font-family="Arial" font-size="20" font-weight="900" fill="#14532d">Option B</text><text x="1156" y="516" font-family="Arial" font-size="17" fill="#14532d">Tool wall + labeled bins</text><rect x="1126" y="578" width="370" height="96" rx="18" fill="#ffedd5" stroke="#ea580c"/><text x="1156" y="616" font-family="Arial" font-size="20" font-weight="900" fill="#7c2d12">Option C</text><text x="1156" y="646" font-family="Arial" font-size="17" fill="#7c2d12">Temporary sort table first</text><rect x="1126" y="724" width="370" height="64" rx="18" fill="#f0fdf4" stroke="#86efac"/><text x="1156" y="764" font-family="Arial" font-size="19" font-weight="900" fill="#14532d">Rick Review Required</text></g><text x="70" y="922" font-family="Arial" font-size="20" font-weight="900" fill="#7c2d12">Sample output — not customer work · Dimensions are hypothetical until customer confirms measurements</text></svg>