<svg xmlns="http://www.w3.org/2000/svg" viewBox="0 0 1200 720" role="img" aria-labelledby="t d"><title id="t">CNC cell concept sample visual</title><desc id="d">A visual showing a messy machine tending workflow becoming a quote-ready concept cell.</desc><rect width="1200" height="720" rx="34" fill="#0f172a"/><rect x="36" y="36" width="1128" height="648" rx="28" fill="#f8fafc"/><text x="70" y="96" font-family="Arial" font-size="34" font-weight="800" fill="#0f172a">Shop / CNC Concept · Machine tending</text><text x="70" y="132" font-family="Arial" font-size="18" fill="#475569">Hypothetical sample: process pain turned into a vendor quote packet.</text><rect x="70" y="175" width="500" height="380" rx="24" fill="#111827"/><text x="100" y="225" font-family="Arial" font-size="26" font-weight="800" fill="#fff">Current state</text><rect x="120" y="300" width="130" height="90" rx="14" fill="#475569"/><text x="148" y="355" font-family="Arial" font-size="20" fill="#fff">Rack</text><rect x="330" y="265" width="150" height="150" rx="14" fill="#1f2937"/><text x="360" y="350" font-family="Arial" font-size="20" fill="#fff">Machine</text><path d="M180 495 C230 210, 390 520, 500 245" fill="none" stroke="#facc15" stroke-width="14" stroke-dasharray="20 16"/><text x="105" y="625" font-family="Arial" font-size="20" fill="#fff">Walking · waiting · handling · unknown ROI</text><rect x="630" y="175" width="500" height="380" rx="24" fill="#0f172a"/><text x="660" y="225" font-family="Arial" font-size="26" font-weight="800" fill="#fff">Concept to quote</text><rect x="690" y="305" width="115" height="90" rx="14" fill="#334155"/><text x="720" y="360" font-family="Arial" font-size="19" fill="#fff">Infeed</text><rect x="855" y="270" width="140" height="150" rx="14" fill="#1f2937"/><text x="885" y="355" font-family="Arial" font-size="19" fill="#fff">Machine</text><circle cx="1055" cy="345" r="65" fill="#64748b"/><text x="1023" y="353" font-family="Arial" font-size="19" fill="#fff">Robot</text><path d="M810 350h40M1000 350h45" stroke="#e5e7eb" stroke-width="12" stroke-linecap="round"/><text x="665" y="625" font-family="Arial" font-size="20" fill="#0f172a">Output: assumptions, sequence map, fixture questions, vendor grid</text></svg>