<svg xmlns="http://www.w3.org/2000/svg" viewBox="0 0 1200 720"><rect width="1200" height="720" rx="34" fill="#111827"/><rect x="36" y="36" width="1128" height="648" rx="28" fill="#f8fafc"/><text x="70" y="96" font-family="Arial" font-size="34" font-weight="800" fill="#0f172a">AI Workflow Snapshot</text><text x="70" y="132" font-family="Arial" font-size="18" fill="#475569">Hypothetical sample: repeated work turned into templates, prompts, and a simple dashboard.</text><rect x="90" y="185" width="1020" height="360" rx="24" fill="#0f172a"/><g font-family="Arial" font-size="20" font-weight="800" fill="#fff"><rect x="135" y="280" width="140" height="90" rx="16" fill="#334155"/><text x="171" y="333">Intake</text><rect x="320" y="280" width="140" height="90" rx="16" fill="#0e7490"/><text x="365" y="333">Sort</text><rect x="505" y="280" width="140" height="90" rx="16" fill="#475569"/><text x="529" y="333">Template</text><rect x="690" y="280" width="140" height="90" rx="16" fill="#115e59"/><text x="728" y="333">Track</text><rect x="875" y="280" width="140" height="90" rx="16" fill="#334155"/><text x="902" y="333">Handoff</text></g><path d="M280 325h35M465 325h35M650 325h35M835 325h35" stroke="#e5e7eb" stroke-width="9" stroke-linecap="round"/><rect x="140" y="435" width="870" height="55" rx="16" fill="#1f2937"/><text x="170" y="470" font-family="Arial" font-size="21" fill="#fff">Dashboard: leads due, quote follow-ups, jobs stuck, next owner actions</text><text x="85" y="620" font-family="Arial" font-size="20" fill="#0f172a">Output: workflow map, prompt pack, template library starter, setup plan</text></svg>