<svg xmlns="http://www.w3.org/2000/svg" viewBox="0 0 1200 720"><rect width="1200" height="720" rx="34" fill="#111827"/><rect x="36" y="36" width="1128" height="648" rx="28" fill="#f8fafc"/><text x="70" y="96" font-family="Arial" font-size="34" font-weight="800" fill="#0f172a">Cleanup Rescue Pack</text><text x="70" y="132" font-family="Arial" font-size="18" fill="#475569">Hypothetical sample: messy files, photos, receipts, and notes turned into an index.</text><rect x="80" y="190" width="460" height="350" rx="24" fill="#f1f5f9"/><text x="110" y="240" font-family="Arial" font-size="26" font-weight="800" fill="#0f172a">Before</text><rect x="120" y="300" width="120" height="85" rx="12" fill="#cbd5e1"/><rect x="260" y="330" width="120" height="85" rx="12" fill="#94a3b8"/><rect x="395" y="285" width="90" height="120" rx="12" fill="#e2e8f0"/><text x="110" y="610" font-family="Arial" font-size="20" fill="#0f172a">Receipts · screenshots · notes · proof photos</text><rect x="620" y="190" width="500" height="350" rx="24" fill="#0f172a"/><text x="650" y="240" font-family="Arial" font-size="26" font-weight="800" fill="#fff">After</text><g fill="#334155"><rect x="660" y="300" width="120" height="85" rx="12"/><rect x="805" y="300" width="120" height="85" rx="12"/><rect x="950" y="300" width="120" height="85" rx="12"/></g><g font-family="Arial" font-size="17" fill="#fff"><text x="688" y="350">Receipts</text><text x="833" y="350">Photos</text><text x="980" y="350">Action</text></g><text x="650" y="610" font-family="Arial" font-size="20" fill="#0f172a">Output: folder map, naming rule, cleanup index, next action list</text></svg>