<svg xmlns="http://www.w3.org/2000/svg" viewBox="0 0 1200 720" role="img" aria-labelledby="t d"><title id="t">Garage before and after sample visual</title><desc id="d">A split visual showing a cluttered garage bay becoming an organized storage and parking zone.</desc><rect width="1200" height="720" rx="34" fill="#111827"/><rect x="36" y="36" width="1128" height="648" rx="28" fill="#f8fafc"/><text x="70" y="96" font-family="Arial" font-size="34" font-weight="800" fill="#0f172a">Problem Snapshot · Garage bay</text><text x="70" y="132" font-family="Arial" font-size="18" fill="#475569">Hypothetical sample: rough photos and notes turned into a first clear move.</text><rect x="70" y="170" width="500" height="390" rx="24" fill="#1f2937"/><text x="100" y="220" font-family="Arial" font-size="26" font-weight="800" fill="#fff">Before</text><rect x="110" y="270" width="125" height="150" rx="14" fill="#6b7280"/><rect x="255" y="315" width="85" height="115" rx="12" fill="#9ca3af"/><rect x="365" y="245" width="145" height="210" rx="16" fill="#374151"/><circle cx="160" cy="490" r="45" fill="#9ca3af"/><rect x="225" y="470" width="290" height="34" rx="17" fill="#d1d5db"/><path d="M100 585h420" stroke="#ef4444" stroke-width="12" stroke-linecap="round"/><text x="100" y="630" font-family="Arial" font-size="20" fill="#fff">No vehicle path · tools mixed with storage</text><rect x="630" y="170" width="500" height="390" rx="24" fill="#0f172a"/><text x="660" y="220" font-family="Arial" font-size="26" font-weight="800" fill="#fff">After plan</text><rect x="675" y="270" width="150" height="220" rx="16" fill="#334155"/><text x="700" y="390" font-family="Arial" font-size="22" fill="#fff">Storage</text><rect x="850" y="270" width="230" height="220" rx="16" fill="#475569"/><text x="910" y="390" font-family="Arial" font-size="22" fill="#fff">Parking</text><path d="M665 535h430" stroke="#22c55e" stroke-width="14" stroke-linecap="round"/><text x="665" y="630" font-family="Arial" font-size="20" fill="#0f172a">First move: clear lane, measure wall, choose storage zone</text></svg>